<svg width="652" height="569" viewBox="0 0 652 569" fill="none" xmlns="http://www.w3.org/2000/svg">
<path fill-rule="evenodd" clip-rule="evenodd" d="M335.342 40.8193C407.424 33.0026 487.262 -27.5297 545.959 15.0328C604.643 57.5868 568.335 153.117 586.857 223.2C603.812 287.359 662.365 341.902 649.552 407.015C636.355 474.071 583.664 533.575 520.596 559.902C461.78 584.453 398.298 548.105 335.342 538.178C284.6 530.176 233.577 531.51 188.173 507.483C136.906 480.354 91.7841 443.573 62.2409 393.658C26.6612 333.544 -13.969 264.803 4.69681 197.489C23.4909 129.712 91.9293 87.4931 155.49 57.3763C211.26 30.9505 273.987 47.4728 335.342 40.8193Z" fill="#EEEEEE"/>
</svg>
