<svg width="684" height="690" viewBox="0 0 684 690" fill="none" xmlns="http://www.w3.org/2000/svg">
<path fill-rule="evenodd" clip-rule="evenodd" d="M340.139 2.95882C412.797 -15.3676 476.521 55.6366 536.576 100.453C595.831 144.671 676.539 185.64 683.563 259.241C690.649 333.49 607.944 381.436 569.492 445.347C542.236 490.649 527.443 540.285 491.273 578.845C447.436 625.579 404.13 686.555 340.139 689.859C275.818 693.181 231.678 629.452 177.221 595.063C117.628 557.431 30.0591 545.66 6.56271 479.211C-16.9261 412.784 27.2275 340.416 66.49 281.912C98.6953 233.923 164.075 225.456 204.547 184.2C258.709 128.988 265.146 21.8742 340.139 2.95882Z" fill="#8B09FF"/>
</svg>
