<svg width="93" height="78" viewBox="0 0 93 78" fill="none" xmlns="http://www.w3.org/2000/svg">
<path d="M14.1864 7.09091C14.1864 11.0071 11.0107 14.1818 7.09322 14.1818C3.17574 14.1818 0 11.0071 0 7.09091C0 3.17471 3.17574 0 7.09322 0C11.0107 0 14.1864 3.17471 14.1864 7.09091Z" fill="#8B09FF"/>
<path d="M14.1864 28.3636C14.1864 32.2798 11.0107 35.4545 7.09322 35.4545C3.17574 35.4545 0 32.2798 0 28.3636C0 24.4474 3.17574 21.2727 7.09322 21.2727C11.0107 21.2727 14.1864 24.4474 14.1864 28.3636Z" fill="#8B09FF"/>
<path d="M14.1864 49.6364C14.1864 53.5526 11.0107 56.7273 7.09322 56.7273C3.17574 56.7273 0 53.5526 0 49.6364C0 45.7202 3.17574 42.5455 7.09322 42.5455C11.0107 42.5455 14.1864 45.7202 14.1864 49.6364Z" fill="#8B09FF"/>
<path d="M14.1864 70.9091C14.1864 74.8253 11.0107 78 7.09322 78C3.17574 78 0 74.8253 0 70.9091C0 66.9929 3.17574 63.8182 7.09322 63.8182C11.0107 63.8182 14.1864 66.9929 14.1864 70.9091Z" fill="#8B09FF"/>
<path d="M33.8898 7.09091C33.8898 11.0071 30.7141 14.1818 26.7966 14.1818C22.8791 14.1818 19.7034 11.0071 19.7034 7.09091C19.7034 3.17471 22.8791 0 26.7966 0C30.7141 0 33.8898 3.17471 33.8898 7.09091Z" fill="#8B09FF"/>
<path d="M33.8898 28.3636C33.8898 32.2798 30.7141 35.4545 26.7966 35.4545C22.8791 35.4545 19.7034 32.2798 19.7034 28.3636C19.7034 24.4474 22.8791 21.2727 26.7966 21.2727C30.7141 21.2727 33.8898 24.4474 33.8898 28.3636Z" fill="#8B09FF"/>
<path d="M33.8898 49.6364C33.8898 53.5526 30.7141 56.7273 26.7966 56.7273C22.8791 56.7273 19.7034 53.5526 19.7034 49.6364C19.7034 45.7202 22.8791 42.5455 26.7966 42.5455C30.7141 42.5455 33.8898 45.7202 33.8898 49.6364Z" fill="#8B09FF"/>
<path d="M33.8898 70.9091C33.8898 74.8253 30.7141 78 26.7966 78C22.8791 78 19.7034 74.8253 19.7034 70.9091C19.7034 66.9929 22.8791 63.8182 26.7966 63.8182C30.7141 63.8182 33.8898 66.9929 33.8898 70.9091Z" fill="#8B09FF"/>
<path d="M53.5932 7.09091C53.5932 11.0071 50.4175 14.1818 46.5 14.1818C42.5825 14.1818 39.4068 11.0071 39.4068 7.09091C39.4068 3.17471 42.5825 0 46.5 0C50.4175 0 53.5932 3.17471 53.5932 7.09091Z" fill="#8B09FF"/>
<path d="M53.5932 28.3636C53.5932 32.2798 50.4175 35.4545 46.5 35.4545C42.5825 35.4545 39.4068 32.2798 39.4068 28.3636C39.4068 24.4474 42.5825 21.2727 46.5 21.2727C50.4175 21.2727 53.5932 24.4474 53.5932 28.3636Z" fill="#8B09FF"/>
<path d="M53.5932 49.6364C53.5932 53.5526 50.4175 56.7273 46.5 56.7273C42.5825 56.7273 39.4068 53.5526 39.4068 49.6364C39.4068 45.7202 42.5825 42.5455 46.5 42.5455C50.4175 42.5455 53.5932 45.7202 53.5932 49.6364Z" fill="#8B09FF"/>
<path d="M53.5932 70.9091C53.5932 74.8253 50.4175 78 46.5 78C42.5825 78 39.4068 74.8253 39.4068 70.9091C39.4068 66.9929 42.5825 63.8182 46.5 63.8182C50.4175 63.8182 53.5932 66.9929 53.5932 70.9091Z" fill="#8B09FF"/>
<path d="M73.2966 7.09091C73.2966 11.0071 70.1209 14.1818 66.2034 14.1818C62.2859 14.1818 59.1102 11.0071 59.1102 7.09091C59.1102 3.17471 62.2859 0 66.2034 0C70.1209 0 73.2966 3.17471 73.2966 7.09091Z" fill="#8B09FF"/>
<path d="M73.2966 28.3636C73.2966 32.2798 70.1209 35.4545 66.2034 35.4545C62.2859 35.4545 59.1102 32.2798 59.1102 28.3636C59.1102 24.4474 62.2859 21.2727 66.2034 21.2727C70.1209 21.2727 73.2966 24.4474 73.2966 28.3636Z" fill="#8B09FF"/>
<path d="M73.2966 49.6364C73.2966 53.5526 70.1209 56.7273 66.2034 56.7273C62.2859 56.7273 59.1102 53.5526 59.1102 49.6364C59.1102 45.7202 62.2859 42.5455 66.2034 42.5455C70.1209 42.5455 73.2966 45.7202 73.2966 49.6364Z" fill="#8B09FF"/>
<path d="M73.2966 70.9091C73.2966 74.8253 70.1209 78 66.2034 78C62.2859 78 59.1102 74.8253 59.1102 70.9091C59.1102 66.9929 62.2859 63.8182 66.2034 63.8182C70.1209 63.8182 73.2966 66.9929 73.2966 70.9091Z" fill="#8B09FF"/>
<path d="M93 7.09091C93 11.0071 89.8243 14.1818 85.9068 14.1818C81.9893 14.1818 78.8136 11.0071 78.8136 7.09091C78.8136 3.17471 81.9893 0 85.9068 0C89.8243 0 93 3.17471 93 7.09091Z" fill="#8B09FF"/>
<path d="M93 28.3636C93 32.2798 89.8243 35.4545 85.9068 35.4545C81.9893 35.4545 78.8136 32.2798 78.8136 28.3636C78.8136 24.4474 81.9893 21.2727 85.9068 21.2727C89.8243 21.2727 93 24.4474 93 28.3636Z" fill="#8B09FF"/>
<path d="M93 49.6364C93 53.5526 89.8243 56.7273 85.9068 56.7273C81.9893 56.7273 78.8136 53.5526 78.8136 49.6364C78.8136 45.7202 81.9893 42.5455 85.9068 42.5455C89.8243 42.5455 93 45.7202 93 49.6364Z" fill="#8B09FF"/>
<path d="M93 70.9091C93 74.8253 89.8243 78 85.9068 78C81.9893 78 78.8136 74.8253 78.8136 70.9091C78.8136 66.9929 81.9893 63.8182 85.9068 63.8182C89.8243 63.8182 93 66.9929 93 70.9091Z" fill="#8B09FF"/>
</svg>
