<svg width="1256" height="1499" viewBox="0 0 1256 1499" fill="none" xmlns="http://www.w3.org/2000/svg">
<circle cx="4.5" cy="395.5" r="4.5" fill="#6A12E8"/>
<circle cx="771" cy="614" r="3" fill="#6A12E8"/>
<circle cx="753" cy="1237" r="3" fill="#6A12E8"/>
<circle cx="1018.5" cy="988.5" r="4.5" fill="#6A12E8"/>
<circle cx="303" cy="474" r="3" fill="#6A12E8"/>
<circle cx="618.5" cy="187.5" r="4.5" fill="#6A12E8"/>
<circle cx="91.5" cy="1017.5" r="4.5" fill="#6A12E8"/>
<circle cx="1100" cy="376" r="3" fill="#6A12E8"/>
<circle cx="1205.5" cy="582.5" r="4.5" fill="#6A12E8"/>
<circle cx="1187.5" cy="1205.5" r="4.5" fill="#6A12E8"/>
<circle cx="671" cy="1143" r="3" fill="#6A12E8"/>
<circle cx="136.5" cy="588.5" r="4.5" fill="#5E5E5E"/>
<circle cx="118.5" cy="1211.5" r="4.5" fill="#5E5E5E"/>
<circle cx="579" cy="509" r="3" fill="#5E5E5E"/>
<circle cx="303" cy="771" r="3" fill="white"/>
<circle cx="285" cy="1394" r="3" fill="white"/>
<circle cx="462" cy="1040" r="3" fill="white"/>
<circle cx="774" cy="408" r="3" fill="white"/>
<circle cx="25" cy="871" r="3" fill="white"/>
<circle cx="7" cy="1494" r="3" fill="white"/>
<circle cx="722.5" cy="868.5" r="4.5" fill="white"/>
<circle cx="706" cy="1493" r="6" fill="white"/>
<circle cx="1229.5" cy="698.5" r="4.5" fill="white"/>
<circle cx="1213" cy="1323" r="6" fill="white"/>
<circle cx="928.5" cy="775.5" r="4.5" fill="#5E5E5E"/>
<circle cx="885.5" cy="1394.5" r="4.5" fill="#5E5E5E"/>
<circle cx="1251.5" cy="463.5" r="4.5" fill="#5E5E5E"/>
<circle cx="939.5" cy="215.5" r="4.5" fill="#5E5E5E"/>
<circle cx="1217.5" cy="1095.5" r="4.5" fill="#5E5E5E"/>
<circle cx="284.5" cy="1107.5" r="4.5" fill="#5E5E5E"/>
<circle cx="240.5" cy="120.5" r="4.5" fill="#6A12E8"/>
<circle cx="539" cy="3" r="3" fill="#5E5E5E"/>
</svg>
