<svg width="100" height="100" viewBox="0 0 100 100" fill="none" xmlns="http://www.w3.org/2000/svg">
<path d="M44.9999 22.4998C41.2549 22.4998 37.7899 23.6748 34.9399 25.6748C34.7549 22.8098 34.0999 20.3248 32.8949 18.1248C36.701 16.0186 40.9908 14.9418 45.3405 15.0011C49.6901 15.0604 53.949 16.2535 57.6963 18.4627C61.4436 20.6719 64.5496 23.8207 66.7074 27.5978C68.8652 31.375 70.0001 35.6498 69.9999 39.9998H81.2549C86.0849 39.9948 90.0049 43.9148 90.0049 48.7448V76.2448C90.0056 77.3948 89.7796 78.5335 89.3398 79.596C88.9001 80.6585 88.2552 81.6239 87.4421 82.437C86.629 83.2501 85.6636 83.895 84.6011 84.3348C83.5386 84.7745 82.3998 85.0005 81.2499 84.9998H53.7499C51.4293 84.9998 49.2037 84.078 47.5627 82.437C45.9218 80.7961 44.9999 78.5705 44.9999 76.2498V64.9998C41.5218 65.0042 38.0813 64.2804 34.8999 62.8748C34.9649 61.1748 34.9999 59.3898 34.9999 57.4998V57.1898C34.9999 56.3548 34.9999 55.3948 34.9849 54.3548C37.8249 56.3348 41.2749 57.4998 44.9999 57.4998V48.7498C44.9999 43.9198 48.9199 39.9998 53.7499 39.9998H62.4999C62.4999 35.3586 60.6562 30.9074 57.3743 27.6255C54.0924 24.3436 49.6412 22.4998 44.9999 22.4998ZM68.8549 47.4998C67.6431 51.3393 65.524 54.8302 62.6771 57.6771C59.8302 60.524 56.3393 62.643 52.4999 63.8548V76.2498C52.4999 76.9398 53.0599 77.4998 53.7499 77.4998H81.2499C81.5814 77.4998 81.8994 77.3682 82.1338 77.1337C82.3682 76.8993 82.4999 76.5814 82.4999 76.2498V48.7498C82.4999 48.4183 82.3682 48.1004 82.1338 47.866C81.8994 47.6315 81.5814 47.4998 81.2499 47.4998H68.8549ZM60.8149 47.4998H53.7499C53.4184 47.4998 53.1004 47.6315 52.866 47.866C52.6316 48.1004 52.4999 48.4183 52.4999 48.7498V55.8148C56.1441 54.0802 59.0802 51.144 60.8149 47.4998Z" fill="white"/>
<path d="M22.9 10.6248C23.3159 10.9872 23.6002 11.4769 23.7087 12.0177C23.8172 12.5585 23.7438 13.12 23.5 13.6148C23.4577 13.7611 23.4358 13.9125 23.435 14.0648C23.435 14.3798 23.515 14.9798 24.27 15.7298C24.635 16.0948 24.915 16.3548 25.22 16.6398C25.47 16.8698 25.735 17.1098 26.07 17.4398C26.72 18.0598 27.405 18.7898 28.02 19.7048C29.295 21.6198 30 24.0148 30 27.4998C30 31.7648 28.42 35.3998 25.955 37.6298L26.275 37.9998C27.675 39.7198 28.49 41.9498 29 44.1498C30 48.4998 30 53.7298 30 57.3748V57.4998C30 71.4348 28.105 79.3398 26.02 83.8598C24.97 86.1348 23.855 87.5848 22.89 88.4948C22.4977 88.8712 22.0651 89.2032 21.6 89.4848C21.3871 89.613 21.1648 89.725 20.935 89.8198C20.935 89.8198 20.37 89.9998 20 89.9998C19.63 89.9998 19.065 89.8198 19.065 89.8198C18.8327 89.7305 18.61 89.6183 18.4 89.4848C17.9349 89.2032 17.5023 88.8712 17.11 88.4948C16.145 87.5798 15.03 86.1348 13.98 83.8598C11.895 79.3398 10 71.4348 10 57.4998V57.3748C10 53.7248 10 48.4998 11 44.1498C11.51 41.9498 12.325 39.7198 13.725 37.9998C13.825 37.8748 13.935 37.7498 14.045 37.6298C11.58 35.3998 10 31.7648 10 27.4998C10 25.8698 10.435 23.9248 11.035 22.1298C11.635 20.3298 12.475 18.4698 13.445 16.9698C14.6 15.0198 16.225 13.3848 17.485 12.2848C18.1758 11.6773 18.8967 11.1049 19.645 10.5698L19.865 10.4198C20.3235 10.1142 20.8701 9.96859 21.4198 10.0057C21.9696 10.0427 22.4917 10.2604 22.905 10.6248H22.9Z" fill="white"/>
</svg>
