<svg width="100" height="100" viewBox="0 0 100 100" fill="none" xmlns="http://www.w3.org/2000/svg">
<path d="M12.0508 33.0859L31.875 87.3828C18.0078 80.6641 8.45703 66.4453 8.45703 50C8.45703 43.9648 9.74609 38.2617 12.0508 33.0859ZM78.0469 47.9102C78.0469 42.7734 76.2109 39.2188 74.6289 36.4453C72.5195 33.0273 70.5469 30.1172 70.5469 26.6992C70.5469 22.8711 73.4375 19.3164 77.5195 19.3164C77.6953 19.3164 77.8711 19.3359 78.0664 19.3555C70.6641 12.5781 60.8203 8.4375 50 8.4375C35.4883 8.4375 22.7148 15.8789 15.2734 27.168C16.25 27.207 17.168 27.2266 17.9492 27.2266C22.2852 27.2266 29.0234 26.6992 29.0234 26.6992C31.2695 26.5625 31.5234 29.8633 29.2969 30.1172C29.2969 30.1172 27.0508 30.3711 24.5508 30.5078L39.6875 75.5078L48.7891 48.2422L42.3242 30.5078C40.0781 30.3711 37.9688 30.1172 37.9688 30.1172C35.7227 29.9805 35.9961 26.5625 38.2227 26.6992C38.2227 26.6992 45.0781 27.2266 49.1602 27.2266C53.4961 27.2266 60.2344 26.6992 60.2344 26.6992C62.4805 26.5625 62.7344 29.8633 60.5078 30.1172C60.5078 30.1172 58.2617 30.3711 55.7617 30.5078L70.7812 75.1758L74.9219 61.3281C76.6797 55.5859 78.0469 51.4648 78.0469 47.9102ZM50.7227 53.6328L38.2617 89.8633C41.9922 90.957 45.918 91.5625 50 91.5625C54.8438 91.5625 59.4727 90.7227 63.7891 89.1992C63.6719 89.0234 63.5742 88.8281 63.4961 88.6328L50.7227 53.6328ZM86.4648 30.0586C86.6406 31.3867 86.7383 32.793 86.7383 34.3359C86.7383 38.5547 85.957 43.2812 83.5742 49.2188L70.8789 85.918C83.2422 78.7109 91.543 65.332 91.543 50C91.543 42.7734 89.707 35.9766 86.4648 30.0586ZM98.4375 50C98.4375 76.7188 76.6992 98.4375 50 98.4375C23.2812 98.4375 1.5625 76.6992 1.5625 50C1.5625 23.2812 23.2812 1.5625 50 1.5625C76.6992 1.5625 98.4375 23.2812 98.4375 50ZM96.2109 50C96.2109 24.5117 75.4688 3.78906 50 3.78906C24.5117 3.78906 3.78906 24.5117 3.78906 50C3.78906 75.4883 24.5313 96.2109 50 96.2109C75.4883 96.2109 96.2109 75.4883 96.2109 50Z" fill="white"/>
</svg>
