<svg width="100" height="95" viewBox="0 0 100 95" fill="none" xmlns="http://www.w3.org/2000/svg">
<path d="M96.875 72.7799H86.3281C85.5469 75.0842 84.3099 77.1909 82.6172 79.1001L87.207 87.2966C87.5977 88.0866 87.679 88.8766 87.4512 89.6666C87.2233 90.4567 86.7839 91.0821 86.1328 91.5429L80.957 94.6043C80.2409 94.9993 79.4922 95.098 78.7109 94.9005C77.9297 94.703 77.3438 94.2093 76.9531 93.4192L72.2656 85.124C70.9635 85.3874 69.7917 85.519 68.75 85.519C67.7083 85.519 66.5365 85.3874 65.2344 85.124L60.5469 93.4192C60.1562 94.2093 59.5703 94.703 58.7891 94.9005C58.0078 95.098 57.2591 94.9993 56.543 94.6043L51.3672 91.5429C50.7161 91.0821 50.2767 90.4567 50.0488 89.6666C49.821 88.8766 49.9023 88.0866 50.293 87.2966L54.8828 79.1001C53.1901 77.1909 51.9531 75.0842 51.1719 72.7799H40.625C39.7786 72.7799 39.0462 72.4837 38.4277 71.8912C37.8092 71.2987 37.5 70.5416 37.5 69.6199V63.2997C37.5 62.4438 37.8092 61.7032 38.4277 61.0778C39.0462 60.4523 39.7786 60.1396 40.625 60.1396H51.1719C51.9531 57.9012 53.1901 55.8274 54.8828 53.9182L50.293 45.7217C49.9023 44.9317 49.821 44.1417 50.0488 43.3517C50.2767 42.5617 50.7161 41.9362 51.3672 41.4754L56.543 38.4141C57.2591 38.019 58.0078 37.9203 58.7891 38.1178C59.5703 38.3153 60.1562 38.7761 60.5469 39.5003L65.2344 47.8943C66.5365 47.631 67.7083 47.4993 68.75 47.4993C69.7917 47.4993 70.9635 47.631 72.2656 47.8943L76.9531 39.5003C77.3438 38.7761 77.9297 38.3153 78.7109 38.1178C79.4922 37.9203 80.2409 38.019 80.957 38.4141L86.1328 41.4754C86.7839 41.9362 87.2233 42.5617 87.4512 43.3517C87.679 44.1417 87.5977 44.9317 87.207 45.7217L82.6172 53.9182C84.3099 55.8274 85.5469 57.9012 86.3281 60.1396H96.875C97.7214 60.1396 98.4538 60.4523 99.0723 61.0778C99.6908 61.7032 100 62.4438 100 63.2997V69.6199C100 70.5416 99.6908 71.2987 99.0723 71.8912C98.4538 72.4837 97.7214 72.7799 96.875 72.7799ZM68.75 60.1396C66.9922 60.1396 65.5111 60.7651 64.3066 62.0159C63.1022 63.2668 62.5 64.7645 62.5 66.5092C62.5 68.2538 63.1022 69.7351 64.3066 70.953C65.5111 72.171 66.9922 72.7799 68.75 72.7799C70.5078 72.7799 71.9889 72.171 73.1934 70.953C74.3978 69.7351 75 68.2538 75 66.5092C75 64.7645 74.3978 63.2668 73.1934 62.0159C71.9889 60.7651 70.5078 60.1396 68.75 60.1396ZM59.375 34.859H48.8281C48.0469 37.1632 46.8099 39.2699 45.1172 41.1791L49.707 49.3756C50.0977 50.0998 50.179 50.8733 49.9512 51.6963C49.7233 52.5192 49.2839 53.1611 48.6328 53.622L43.457 56.6833C42.7409 57.0783 41.9922 57.1606 41.2109 56.9302C40.4297 56.6997 39.8438 56.2224 39.4531 55.4982L34.7656 47.203C33.5286 47.4005 32.3568 47.4993 31.25 47.4993C30.1432 47.4993 28.9714 47.4005 27.7344 47.203L23.0469 55.4982C22.6562 56.2224 22.0703 56.6997 21.2891 56.9302C20.5078 57.1606 19.7591 57.0783 19.043 56.6833L13.8672 53.622C13.2161 53.1611 12.7767 52.5192 12.5488 51.6963C12.321 50.8733 12.4023 50.0998 12.793 49.3756L17.3828 41.1791C15.6901 39.2699 14.4531 37.1632 13.6719 34.859H3.125C2.27865 34.859 1.54622 34.5627 0.927734 33.9702C0.309245 33.3777 0 32.6206 0 31.6989V25.3787C0 24.5229 0.309245 23.7822 0.927734 23.1568C1.54622 22.5314 2.27865 22.2186 3.125 22.2186H13.6719C14.4531 19.9802 15.6901 17.8735 17.3828 15.8985L12.793 7.70201C12.4023 6.97782 12.321 6.20426 12.5488 5.38132C12.7767 4.55839 13.2161 3.94941 13.8672 3.5544L19.043 0.493072C19.7591 0.0322266 20.5078 -0.0829848 21.2891 0.147438C22.0703 0.377861 22.6562 0.855165 23.0469 1.57935L27.7344 9.97332C29.0365 9.70998 30.2083 9.57831 31.25 9.57831C32.2917 9.57831 33.4635 9.70998 34.7656 9.97332L39.4531 1.57935C39.8438 0.855165 40.4297 0.377861 41.2109 0.147438C41.9922 -0.0829848 42.7409 0.0322266 43.457 0.493072L48.6328 3.5544C49.2839 3.94941 49.7233 4.55839 49.9512 5.38132C50.179 6.20426 50.0977 6.97782 49.707 7.70201L45.1172 15.8985C46.8099 17.8735 48.0469 19.9802 48.8281 22.2186H59.375C60.2214 22.2186 60.9538 22.5314 61.5723 23.1568C62.1908 23.7822 62.5 24.5229 62.5 25.3787V31.6989C62.5 32.6206 62.1908 33.3777 61.5723 33.9702C60.9538 34.5627 60.2214 34.859 59.375 34.859ZM31.25 22.2186C29.4922 22.2186 28.0111 22.8441 26.8066 24.0949C25.6022 25.3458 25 26.8435 25 28.5882C25 30.3328 25.6022 31.8141 26.8066 33.032C28.0111 34.25 29.4922 34.859 31.25 34.859C33.0078 34.859 34.4889 34.25 35.6934 33.032C36.8978 31.8141 37.5 30.3328 37.5 28.5882C37.5 26.8435 36.8978 25.3458 35.6934 24.0949C34.4889 22.8441 33.0078 22.2186 31.25 22.2186Z" fill="white"/>
</svg>
