<svg width="32" height="38" viewBox="0 0 32 38" fill="none" xmlns="http://www.w3.org/2000/svg">
<path d="M25.6923 0.153858C23.4359 0.102576 21.6666 0.410268 20.3846 1.07693C18.7436 1.89745 17.3077 3.7436 16.0769 6.6154C16.0256 6.46155 15.923 6.28206 15.7692 6.07693C15.2051 5.05129 14.7692 4.3077 14.4615 3.84616C14.1538 3.38463 13.7307 2.87181 13.1923 2.3077C12.6538 1.7436 12.0512 1.3077 11.3846 1.00001C9.84612 0.230781 7.97432 1.14888e-05 5.76919 0.307704C2.79483 1.02565 1.07688 3.02565 0.615346 6.3077C0.0512433 8.41027 0.640987 10.7692 2.38458 13.3846C3.61535 15.2821 4.33329 16.3846 4.53842 16.6923C4.8974 17.2051 5.80765 18.4103 7.26919 20.3077C8.73073 22.2051 9.71791 23.5385 10.2307 24.3077C12.7436 28.2564 14.3077 31 14.923 32.5385C14.9743 32.641 15.1666 33.141 15.5 34.0385C15.8333 34.9359 16.0256 35.4359 16.0769 35.5385C17.1025 31.0256 20.1282 25.7949 25.1538 19.8462C31 13.1282 32.8718 7.87181 30.7692 4.07693C29.8974 2.12822 28.2051 0.820524 25.6923 0.153858Z" fill="black"/>
</svg>
