<svg width="457" height="60" viewBox="0 0 457 60" fill="none" xmlns="http://www.w3.org/2000/svg">
<path fill-rule="evenodd" clip-rule="evenodd" d="M220.575 9.53278C215.117 9.62496 208.882 9.9084 202.135 10.3423L201.942 7.34853C208.721 6.91258 215.006 6.62642 220.524 6.53321L220.575 9.53278ZM239.983 10.8349C238.697 10.4243 236.814 10.0986 234.36 9.87312L234.634 6.8857C237.166 7.11836 239.302 7.4682 240.896 7.97697C241.692 8.23106 242.421 8.54593 243.013 8.95309C243.602 9.35883 244.162 9.93294 244.403 10.7305C244.925 12.4591 244.231 14.0621 243.182 15.3723C242.134 16.682 240.548 17.9469 238.701 19.1704L237.044 16.6695C238.806 15.5023 240.084 14.4421 240.84 13.4978C241.58 12.5734 241.642 11.9984 241.538 11.6209C241.521 11.5973 241.463 11.5283 241.311 11.424C241.053 11.2463 240.627 11.0405 239.983 10.8349ZM188.294 11.3772C182.314 11.8795 176.115 12.4643 169.844 13.1085L169.537 10.1242C175.824 9.47838 182.042 8.89182 188.042 8.38773L188.294 11.3772ZM156.03 14.608C149.816 15.3174 143.639 16.0681 137.642 16.8379L137.26 13.8623C143.27 13.0908 149.461 12.3384 155.69 11.6274L156.03 14.608ZM123.878 18.6816C117.284 19.6031 111.096 20.5265 105.542 21.4159L105.068 18.4537C110.644 17.5607 116.853 16.6343 123.462 15.7105L123.878 18.6816ZM91.8813 23.7801C88.1542 24.4901 85.1289 25.1418 82.9545 25.7093C80.1837 26.4325 77.4738 27.1461 74.8247 27.8537L74.0506 24.9553C76.7065 24.2459 79.422 23.5308 82.1969 22.8066C84.4666 22.2142 87.5675 21.5479 91.3199 20.8331L91.8813 23.7801ZM223.235 24.0981C223.953 23.7424 224.666 23.3895 225.37 23.0394L226.706 25.7255C225.993 26.0799 225.275 26.4355 224.555 26.7923C219.823 29.1359 214.985 31.5327 210.864 33.9954L209.325 31.4203C213.556 28.8916 218.515 26.4357 223.235 24.0981ZM62.6889 31.185C57.0128 32.7948 51.6653 34.3994 46.6441 36.0403L45.7123 33.1887C50.781 31.5323 56.168 29.9161 61.8703 28.2988L62.6889 31.185ZM34.8283 40.2198C29.2644 42.3674 24.2155 44.6189 19.6747 47.0514L18.258 44.4069C22.9327 41.9027 28.0989 39.6015 33.748 37.421L34.8283 40.2198ZM414.439 40.8005C411.327 41.7542 408.025 42.674 404.56 43.559L403.817 40.6523C407.243 39.7774 410.499 38.8702 413.561 37.9322L414.439 40.8005ZM197.859 45.7059C197.489 43.9547 197.853 42.2703 198.676 40.7162L201.327 42.1192C200.759 43.1933 200.599 44.1624 200.794 45.0862C200.993 46.0287 201.603 47.1161 202.931 48.3319C204.384 49.6607 207.234 50.9365 211.525 52.0386L210.779 54.9443C206.41 53.822 202.937 52.4028 200.906 50.5453C199.269 49.0472 198.225 47.4383 197.859 45.7059ZM389.509 46.9895C383.099 48.2979 376.329 49.5093 369.315 50.619L368.846 47.6558C375.822 46.5521 382.548 45.3485 388.909 44.0501L389.509 46.9895ZM354.084 52.8226C347.401 53.7046 340.58 54.499 333.71 55.2022L333.404 52.2178C340.247 51.5174 347.039 50.7263 353.692 49.8484L354.084 52.8226ZM9.2315 53.6652C6.98908 55.3659 4.93575 57.1559 3.06898 59.0523L0.93103 56.9477C2.90754 54.9399 5.07108 53.0553 7.41867 51.2749L9.2315 53.6652ZM318.398 56.6135C311.536 57.1771 304.689 57.6479 297.944 58.0221L297.778 55.0267C304.496 54.6539 311.316 54.185 318.153 53.6236L318.398 56.6135ZM246.683 58.8533C239.141 58.6071 232.219 58.163 226.141 57.5098L226.462 54.527C232.448 55.1703 239.293 55.6105 246.781 55.8549L246.683 58.8533ZM282.588 58.7132C275.513 58.9552 268.635 59.0809 262.064 59.0855L262.062 56.0855C268.596 56.0809 275.441 55.9559 282.485 55.715L282.588 58.7132Z" fill="#5E5E5E"/>
<path d="M456.748 3.62971L450.147 34.7625C449.648 36.9594 448.35 37.5063 446.505 36.4719L436.445 29.0594L431.592 33.7282C431.055 34.2657 430.606 34.7141 429.57 34.7141L430.294 24.4703L448.936 7.62503C449.747 6.90315 448.759 6.50159 447.677 7.22503L424.63 21.7375L414.708 18.6313C412.55 17.9578 412.511 16.4735 415.158 15.4375L453.966 0.485964C455.763 -0.187474 457.334 0.885963 456.748 3.63128V3.62971Z" fill="#5E5E5E"/>
</svg>
