<svg width="24" height="24" viewBox="0 0 24 24" fill="none" xmlns="http://www.w3.org/2000/svg">
<g clip-path="url(#clip0)">
<path d="M18.5625 13.1565C17.4608 13.1565 16.4257 12.6915 15.4882 11.9303L15.7147 10.8563L15.7222 10.8135C15.9292 9.6728 16.5697 7.75505 18.5618 7.75505C19.2786 7.75525 19.966 8.04009 20.4728 8.54696C20.9797 9.05382 21.2646 9.74123 21.2648 10.458C21.2636 11.1742 20.9783 11.8607 20.4715 12.3667C19.9648 12.8728 19.2779 13.1571 18.5618 13.1573L18.5625 13.1565ZM18.5625 5.0198C16.0238 5.0198 14.0505 6.6683 13.2502 9.3833C12.0315 7.55105 11.1015 5.3483 10.563 3.4928H7.8285V10.6058C7.82711 11.2809 7.55832 11.9279 7.08097 12.4053C6.60361 12.8826 5.95658 13.1514 5.2815 13.1528C4.6066 13.1508 3.95991 12.8818 3.48268 12.4046C3.00546 11.9274 2.73648 11.2807 2.7345 10.6058V3.4928H0V10.6058C0 13.5195 2.37075 15.9068 5.2815 15.9068C8.19525 15.9068 10.563 13.5203 10.563 10.6058V9.41405C11.094 10.5195 11.7465 11.6445 12.5392 12.6368L10.8637 20.508H13.6605L14.8755 14.7968C15.9382 15.4763 17.1607 15.906 18.5632 15.906C21.5632 15.906 24.0007 13.4528 24.0007 10.4565C24.0007 7.45655 21.5632 5.01905 18.5632 5.01905L18.5625 5.0198Z" fill="#5E5E5E"/>
</g>
<defs>
<clipPath id="clip0">
<rect width="24" height="24" fill="white"/>
</clipPath>
</defs>
</svg>
