<svg width="1440" height="235" viewBox="0 0 1440 235" fill="none" xmlns="http://www.w3.org/2000/svg">
<path fill-rule="evenodd" clip-rule="evenodd" d="M0 13.3002L59.6104 38.2664C120.39 62.2339 239.61 112.166 360 93.192C480.39 75.2164 599.61 -11.666 720 1.31644C840.39 13.3002 959.61 124.15 1080 173.084C1200.39 223.016 1319.61 210.034 1380.39 204.042L1440 198.05V235H1380.39C1319.61 235 1200.39 235 1080 235C959.61 235 840.39 235 720 235C599.61 235 480.39 235 360 235C239.61 235 120.39 235 59.6104 235H0V13.3002Z" fill="#333333"/>
</svg>
