<svg width="1440" height="370" viewBox="0 0 1440 370" fill="none" xmlns="http://www.w3.org/2000/svg">
<path fill-rule="evenodd" clip-rule="evenodd" d="M0 173L30 187C60 202 120 230 180 259C240 288 300 317 360 281C420 245 480 144 540 122C600 101 660 158 720 194C780 230 840 245 900 230C960 216 1020 173 1080 202C1140 230 1200 331 1260 360C1320 389 1380 346 1410 324L1440 302V0H1410C1380 0 1320 0 1260 0C1200 0 1140 0 1080 0C1020 0 960 0 900 0C840 0 780 0 720 0C660 0 600 0 540 0C480 0 420 0 360 0C300 0 240 0 180 0C120 0 60 0 30 0H0V173Z" fill="#333333"/>
</svg>
