<svg width="1440" height="239" viewBox="0 0 1440 239" fill="none" xmlns="http://www.w3.org/2000/svg">
<path fill-rule="evenodd" clip-rule="evenodd" d="M0 108.581L40 80.581C80 51.581 160 -6.41901 240 15.581C320 36.581 400 137.581 480 144.581C560 152.581 640 65.581 720 51.581C800 36.581 880 94.581 960 87.581C1040 80.581 1120 8.58099 1200 0.580991C1280 -6.41901 1360 51.581 1400 80.581L1440 108.581V238.581H1400C1360 238.581 1280 238.581 1200 238.581C1120 238.581 1040 238.581 960 238.581C880 238.581 800 238.581 720 238.581C640 238.581 560 238.581 480 238.581C400 238.581 320 238.581 240 238.581C160 238.581 80 238.581 40 238.581H0V108.581Z" fill="#EFEFEF"/>
</svg>
