<svg width="1440" height="598" viewBox="0 0 1440 598" fill="none" xmlns="http://www.w3.org/2000/svg">
<g filter="url(#filter0_dddd)">
<path fill-rule="evenodd" clip-rule="evenodd" d="M0 187L30 201C60 216 120 244 180 273C240 302 300 331 360 295C420 259 480 158 540 136C600 115 660 172 720 208C780 244 840 259 900 244C960 230 1020 187 1080 216C1140 244 1200 345 1260 374C1320 403 1380 360 1410 338L1440 316V14H1410C1380 14 1320 14 1260 14C1200 14 1140 14 1080 14C1020 14 960 14 900 14C840 14 780 14 720 14C660 14 600 14 540 14C480 14 420 14 360 14C300 14 240 14 180 14C120 14 60 14 30 14H0V187Z" fill="#333333"/>
<path fill-rule="evenodd" clip-rule="evenodd" d="M0 187L30 201C60 216 120 244 180 273C240 302 300 331 360 295C420 259 480 158 540 136C600 115 660 172 720 208C780 244 840 259 900 244C960 230 1020 187 1080 216C1140 244 1200 345 1260 374C1320 403 1380 360 1410 338L1440 316V14H1410C1380 14 1320 14 1260 14C1200 14 1140 14 1080 14C1020 14 960 14 900 14C840 14 780 14 720 14C660 14 600 14 540 14C480 14 420 14 360 14C300 14 240 14 180 14C120 14 60 14 30 14H0V187Z" stroke="black"/>
</g>
<defs>
<filter id="filter0_dddd" x="-114" y="0" width="1668" height="597.725" filterUnits="userSpaceOnUse" color-interpolation-filters="sRGB">
<feFlood flood-opacity="0" result="BackgroundImageFix"/>
<feColorMatrix in="SourceAlpha" type="matrix" values="0 0 0 0 0 0 0 0 0 0 0 0 0 0 0 0 0 0 127 0"/>
<feOffset dy="4.5288"/>
<feGaussianBlur stdDeviation="2.58142"/>
<feColorMatrix type="matrix" values="0 0 0 0 0 0 0 0 0 0 0 0 0 0 0 0 0 0 0.104523 0"/>
<feBlend mode="normal" in2="BackgroundImageFix" result="effect1_dropShadow"/>
<feColorMatrix in="SourceAlpha" type="matrix" values="0 0 0 0 0 0 0 0 0 0 0 0 0 0 0 0 0 0 127 0"/>
<feOffset dy="12.5216"/>
<feGaussianBlur stdDeviation="7.13728"/>
<feColorMatrix type="matrix" values="0 0 0 0 0 0 0 0 0 0 0 0 0 0 0 0 0 0 0.15 0"/>
<feBlend mode="normal" in2="effect1_dropShadow" result="effect2_dropShadow"/>
<feColorMatrix in="SourceAlpha" type="matrix" values="0 0 0 0 0 0 0 0 0 0 0 0 0 0 0 0 0 0 127 0"/>
<feOffset dy="30.1471"/>
<feGaussianBlur stdDeviation="17.1838"/>
<feColorMatrix type="matrix" values="0 0 0 0 0 0 0 0 0 0 0 0 0 0 0 0 0 0 0.195477 0"/>
<feBlend mode="normal" in2="effect2_dropShadow" result="effect3_dropShadow"/>
<feColorMatrix in="SourceAlpha" type="matrix" values="0 0 0 0 0 0 0 0 0 0 0 0 0 0 0 0 0 0 127 0"/>
<feOffset dy="100"/>
<feGaussianBlur stdDeviation="57"/>
<feColorMatrix type="matrix" values="0 0 0 0 0 0 0 0 0 0 0 0 0 0 0 0 0 0 0.3 0"/>
<feBlend mode="normal" in2="effect3_dropShadow" result="effect4_dropShadow"/>
<feBlend mode="normal" in="SourceGraphic" in2="effect4_dropShadow" result="shape"/>
</filter>
</defs>
</svg>
